<svg xmlns="http://www.w3.org/2000/svg" xmlns:xlink="http://www.w3.org/1999/xlink" viewBox="0 0 828 230.79"><defs><style>.a{fill:#414042;}.b{fill:#035fa2;}.c{fill:url(#a);}.d{fill:url(#b);}.e{fill:url(#c);}.f{fill:url(#d);}.g{fill:url(#e);}.h{fill:url(#f);}.i{fill:url(#g);}</style><radialGradient id="a" cx="-9929.61" cy="709.61" r="326.89" gradientTransform="matrix(0.1, 0, 0, 0.1, 1141.37, 29.05)" gradientUnits="userSpaceOnUse"><stop offset="0" stop-color="#4495d1"/><stop offset="1" stop-color="#15256d"/></radialGradient><linearGradient id="b" x1="1130.31" y1="796.64" x2="1231.18" y2="753.69" gradientTransform="translate(-152.77 -1354.79) rotate(45)" xlink:href="#a"/><linearGradient id="c" x1="1877.92" y1="-304.87" x2="1978.8" y2="-347.82" gradientTransform="translate(-152.68 2089.65) rotate(-75)" xlink:href="#a"/><linearGradient id="d" x1="2345.65" y1="826.62" x2="2446.52" y2="783.67" gradientTransform="translate(2704.64 332.19) rotate(165)" xlink:href="#a"/><linearGradient id="e" x1="42.48" y1="85.61" x2="88.19" y2="15.46" gradientTransform="matrix(1, 0, 0, 1, 0, 0)" xlink:href="#a"/><linearGradient id="f" x1="128.97" y1="185.65" x2="46.96" y2="194.01" gradientTransform="matrix(1, 0, 0, 1, 0, 0)" xlink:href="#a"/><linearGradient id="g" x1="181.77" y1="67.03" x2="198.49" y2="151.42" gradientTransform="matrix(1, 0, 0, 1, 0, 0)" xlink:href="#a"/></defs><path class="a" d="M327.06,92.6H312.11l-3.4,9.35h-4.55l13.35-35H322l13.1,35h-4.7Zm-13.5-4.1h12.05l-5.85-16.45h-.2Z"/><path class="a" d="M354,102h-4.5V71.15H339.11V67h25.2v4.2H354Z"/><path class="a" d="M388.16,102.45a16.64,16.64,0,0,1-6.58-1.25,14,14,0,0,1-5-3.58A15.8,15.8,0,0,1,373.41,92a23.83,23.83,0,0,1-1.1-7.5,22.9,22.9,0,0,1,1.15-7.53,16.44,16.44,0,0,1,3.22-5.65,13.9,13.9,0,0,1,5-3.57A15.75,15.75,0,0,1,388,66.45a16.77,16.77,0,0,1,6.87,1.32,14,14,0,0,1,5,3.7,16.3,16.3,0,0,1,3.08,5.7A24.07,24.07,0,0,1,404,84.45a23.32,23.32,0,0,1-1.2,7.82,16,16,0,0,1-3.3,5.63,13.68,13.68,0,0,1-5,3.4A17.24,17.24,0,0,1,388.16,102.45Zm.45-4.2a9.45,9.45,0,0,0,7.77-3.48c1.88-2.31,2.83-5.76,2.83-10.32a21.71,21.71,0,0,0-.78-6.2,11.73,11.73,0,0,0-2.22-4.3,8.63,8.63,0,0,0-3.53-2.5,12.74,12.74,0,0,0-4.67-.8,10.79,10.79,0,0,0-4.3.85,9,9,0,0,0-3.45,2.55,12.3,12.3,0,0,0-2.3,4.3,19.53,19.53,0,0,0-.85,6.1,20.08,20.08,0,0,0,.82,6,12.06,12.06,0,0,0,2.33,4.32,9.33,9.33,0,0,0,3.62,2.58A12.77,12.77,0,0,0,388.61,98.25Z"/><path class="a" d="M450.71,102h-4.5L444.06,74.6,435.21,102h-4.7l-8.8-27.25L419.51,102H415l3-35h5.5L433,97.05,442.21,67h5.5Z"/><path class="a" d="M467,81.75h14.65a13.83,13.83,0,0,0-1.08-4.93,9.82,9.82,0,0,0-2.52-3.45,10.63,10.63,0,0,0-3.78-2.05,16,16,0,0,0-4.77-.67,29.11,29.11,0,0,0-3.55.25,14.91,14.91,0,0,0-3.9,1l-.85-3.65A14.69,14.69,0,0,1,465,67a23.63,23.63,0,0,1,5.18-.55,21.38,21.38,0,0,1,6.8,1,13,13,0,0,1,5.17,3.18,14.3,14.3,0,0,1,3.28,5.47A24.34,24.34,0,0,1,486.56,84a25.29,25.29,0,0,1-1.1,7.72,15.16,15.16,0,0,1-3.33,5.8,14.57,14.57,0,0,1-5.52,3.65,21.31,21.31,0,0,1-7.7,1.28,21.91,21.91,0,0,1-4.55-.4c-1.2-.27-2.22-.54-3.05-.8l.85-4a16.44,16.44,0,0,0,3.45.75,31.85,31.85,0,0,0,3.3.2,13.41,13.41,0,0,0,9.2-3q3.45-3.06,3.6-9.35H467Z"/><path class="a" d="M525.76,102h-4.5V85.85h-17.7V102h-4.5V67h4.5v14.8h17.7V67h4.5Z"/><path class="a" d="M559.3,102H539.75V67H559.3v4.2h-15v10.6H558v4.1H544.25v11.9h15Z"/><path class="a" d="M576.55,102h-4.5V67h10.3a21.5,21.5,0,0,1,5.38.62,11,11,0,0,1,4.07,2,8.68,8.68,0,0,1,2.6,3.4,12.11,12.11,0,0,1,.9,4.9c0,3.63-1.17,6.41-3.52,8.32s-5.63,2.88-9.83,2.88h-5.4Zm0-17.1H582q4.2,0,6.38-1.7A6.2,6.2,0,0,0,590.5,78c0-2.4-.72-4.14-2.17-5.2s-3.58-1.6-6.38-1.6h-5.4Z"/><path class="a" d="M611.3,102h-4.5V67h18.55v4.2H611.3Z"/><path class="a" d="M648.45,102.45a16.62,16.62,0,0,1-6.57-1.25,14,14,0,0,1-5-3.58A16,16,0,0,1,633.7,92a24.12,24.12,0,0,1-1.1-7.5,23.17,23.17,0,0,1,1.15-7.53A16.45,16.45,0,0,1,637,71.27a14,14,0,0,1,5-3.57,15.78,15.78,0,0,1,6.35-1.25,16.86,16.86,0,0,1,6.88,1.32,14,14,0,0,1,5,3.7,16.28,16.28,0,0,1,3.07,5.7,24.07,24.07,0,0,1,1,7.28,23.32,23.32,0,0,1-1.2,7.82,16,16,0,0,1-3.3,5.63,13.6,13.6,0,0,1-5,3.4A17.2,17.2,0,0,1,648.45,102.45Zm.45-4.2a9.49,9.49,0,0,0,7.78-3.48c1.88-2.31,2.82-5.76,2.82-10.32a21.74,21.74,0,0,0-.77-6.2A11.59,11.59,0,0,0,656.5,74a8.53,8.53,0,0,0-3.52-2.5,12.8,12.8,0,0,0-4.68-.8,10.85,10.85,0,0,0-4.3.85,9.14,9.14,0,0,0-3.45,2.55,12.63,12.63,0,0,0-2.3,4.3,19.83,19.83,0,0,0-.85,6.1,20.06,20.06,0,0,0,.83,6,12,12,0,0,0,2.32,4.32,9.37,9.37,0,0,0,3.63,2.58A12.71,12.71,0,0,0,648.9,98.25Z"/><path class="a" d="M702.35,102h-4.5V71.15H681.3V102h-4.5V67h25.55Z"/><path class="a" d="M720.85,102h-4.5V67h10.3a21.55,21.55,0,0,1,5.38.62,11,11,0,0,1,4.07,2,8.68,8.68,0,0,1,2.6,3.4,12.11,12.11,0,0,1,.9,4.9c0,3.63-1.17,6.41-3.52,8.32s-5.63,2.88-9.83,2.88h-5.4Zm0-17.1h5.4q4.2,0,6.38-1.7A6.2,6.2,0,0,0,734.8,78c0-2.4-.72-4.14-2.17-5.2s-3.58-1.6-6.38-1.6h-5.4Z"/><path class="a" d="M765.45,102.45a16.62,16.62,0,0,1-6.57-1.25,14,14,0,0,1-5-3.58A15.81,15.81,0,0,1,750.7,92a24.12,24.12,0,0,1-1.1-7.5,23.17,23.17,0,0,1,1.15-7.53A16.45,16.45,0,0,1,754,71.27a14,14,0,0,1,5-3.57,15.78,15.78,0,0,1,6.35-1.25,16.86,16.86,0,0,1,6.88,1.32,14,14,0,0,1,5,3.7,16.28,16.28,0,0,1,3.07,5.7,24.07,24.07,0,0,1,1,7.28,23.32,23.32,0,0,1-1.2,7.82,16,16,0,0,1-3.3,5.63,13.6,13.6,0,0,1-5,3.4A17.2,17.2,0,0,1,765.45,102.45Zm.45-4.2a9.49,9.49,0,0,0,7.78-3.48c1.88-2.31,2.82-5.76,2.82-10.32a22.1,22.1,0,0,0-.77-6.2A11.59,11.59,0,0,0,773.5,74a8.53,8.53,0,0,0-3.52-2.5,12.8,12.8,0,0,0-4.68-.8,10.85,10.85,0,0,0-4.3.85,9.14,9.14,0,0,0-3.45,2.55,12.63,12.63,0,0,0-2.3,4.3,19.83,19.83,0,0,0-.85,6.1,20.06,20.06,0,0,0,.83,6,12,12,0,0,0,2.32,4.32,9.37,9.37,0,0,0,3.63,2.58A12.71,12.71,0,0,0,765.9,98.25Z"/><path class="a" d="M828,102h-4.5L821.35,74.6,812.5,102h-4.7L799,74.7,796.8,102h-4.5l3-35h5.5l9.45,30.1L819.5,67H825Z"/><rect class="a" x="266.32" y="18.89" width="2.4" height="193.36"/><path class="b" d="M307.8,167.51h-3.61v-28h8.25a17.12,17.12,0,0,1,4.31.5,8.63,8.63,0,0,1,3.26,1.58,7,7,0,0,1,2.08,2.73,9.53,9.53,0,0,1,.73,3.92,8.13,8.13,0,0,1-2.83,6.67q-2.82,2.3-7.87,2.3H307.8Zm0-13.69h4.32a8.15,8.15,0,0,0,5.11-1.37,4.94,4.94,0,0,0,1.74-4.16,4.85,4.85,0,0,0-1.74-4.17,8.58,8.58,0,0,0-5.11-1.28H307.8Z"/><path class="b" d="M343.12,167.91a13.28,13.28,0,0,1-5.27-1,11.13,11.13,0,0,1-4-2.86,12.51,12.51,0,0,1-2.54-4.55,19.05,19.05,0,0,1-.89-6,18.22,18.22,0,0,1,.93-6,13.12,13.12,0,0,1,2.58-4.53,11.26,11.26,0,0,1,4-2.86,12.7,12.7,0,0,1,5.09-1,13.41,13.41,0,0,1,5.51,1.06,11.3,11.3,0,0,1,4,3,13,13,0,0,1,2.46,4.57,19,19,0,0,1,.85,5.83,18.42,18.42,0,0,1-1,6.26,12.72,12.72,0,0,1-2.64,4.51,10.91,10.91,0,0,1-4,2.72A13.59,13.59,0,0,1,343.12,167.91Zm.36-3.36a7.61,7.61,0,0,0,6.23-2.78Q352,159,352,153.5a17.65,17.65,0,0,0-.62-5,9.25,9.25,0,0,0-1.78-3.44,7,7,0,0,0-2.83-2,10.44,10.44,0,0,0-3.74-.64,8.73,8.73,0,0,0-3.44.68,7.51,7.51,0,0,0-2.77,2,10,10,0,0,0-1.84,3.44,18,18,0,0,0,0,9.73,9.66,9.66,0,0,0,1.86,3.47,7.41,7.41,0,0,0,2.91,2.06A10.14,10.14,0,0,0,343.48,164.55Z"/><path class="b" d="M384.33,166.75a10.87,10.87,0,0,1-2.72.86,18.18,18.18,0,0,1-3.41.3,16.26,16.26,0,0,1-5.86-1,11.86,11.86,0,0,1-4.39-2.82,12.41,12.41,0,0,1-2.76-4.43,16.6,16.6,0,0,1-1-5.82,19.23,19.23,0,0,1,1-6.33,12.67,12.67,0,0,1,2.76-4.65,11.66,11.66,0,0,1,4.34-2.84,16,16,0,0,1,5.67-1,18.16,18.16,0,0,1,3.91.34,17.06,17.06,0,0,1,2.5.74l-.68,3.16a14.24,14.24,0,0,0-2.68-.68,19.06,19.06,0,0,0-2.69-.2q-5,0-7.63,2.81t-2.62,8.25a13.81,13.81,0,0,0,.74,4.66,9.61,9.61,0,0,0,2.1,3.49,8.93,8.93,0,0,0,3.33,2.16,12.56,12.56,0,0,0,4.44.74,15.23,15.23,0,0,0,2.67-.24,8.75,8.75,0,0,0,2.38-.76Z"/><path class="b" d="M409.52,160h-12l-2.72,7.49h-3.64l10.69-28h3.6l10.5,28H412.2Zm-10.82-3.28h9.66l-4.69-13.18h-.16Z"/><path class="b" d="M430.66,167.51h-3.6V142.84h-8.29v-3.36H439v3.36h-8.29Z"/><path class="b" d="M457.66,167.91a13.24,13.24,0,0,1-5.27-1,11,11,0,0,1-4-2.86,12.67,12.67,0,0,1-2.55-4.55,19.06,19.06,0,0,1-.88-6,18.49,18.49,0,0,1,.92-6,13.3,13.3,0,0,1,2.59-4.53,11.17,11.17,0,0,1,4-2.86,12.67,12.67,0,0,1,5.09-1,13.36,13.36,0,0,1,5.5,1.06,11.25,11.25,0,0,1,4,3,13,13,0,0,1,2.46,4.57,19.33,19.33,0,0,1,.84,5.83,18.67,18.67,0,0,1-1,6.26,12.72,12.72,0,0,1-2.64,4.51,10.86,10.86,0,0,1-4,2.72A13.54,13.54,0,0,1,457.66,167.91Zm.36-3.36a7.58,7.58,0,0,0,6.22-2.78q2.26-2.79,2.27-8.27a17.65,17.65,0,0,0-.62-5,9.27,9.27,0,0,0-1.79-3.44,6.91,6.91,0,0,0-2.82-2,10.51,10.51,0,0,0-3.74-.64,8.81,8.81,0,0,0-3.45.68,7.4,7.4,0,0,0-2.76,2,9.79,9.79,0,0,0-1.84,3.44,15.61,15.61,0,0,0-.68,4.89,16,16,0,0,0,.66,4.84,9.66,9.66,0,0,0,1.86,3.47,7.45,7.45,0,0,0,2.9,2.06A10.23,10.23,0,0,0,458,164.55Z"/><path class="b" d="M507.36,167.51h-3.61L502,145.61l-7.09,21.9h-3.76l-7.05-21.82-1.76,21.82h-3.61l2.4-28h4.41l7.57,24.11,7.41-24.11H505Z"/><path class="c" d="M134.26,131.84a24.2,24.2,0,1,1-1.7-34.22A24.11,24.11,0,0,1,134.26,131.84Z"/><path class="d" d="M122.63,32.69a79.88,79.88,0,0,1,5.6,6.06A95,95,0,0,1,142.5,61.84,74.62,74.62,0,0,0,159.9,63l1,0c.33,0,.62-.07.95-.09,12-1.08,27.49-5.67,41.7-19.9.49-.49,1-1,1.46-1.52-2.2-2.63-4.47-5.22-6.93-7.69A115.76,115.76,0,0,0,47.12,23C82.69,5.75,107.33,17.64,122.63,32.69Z"/><path class="e" d="M40.71,150.22a80.89,80.89,0,0,1,2.45-7.88A95,95,0,0,1,56,118.43a74.59,74.59,0,0,0-7.66-15.66c-.19-.3-.35-.58-.55-.88s-.37-.5-.55-.77C40.34,91.3,28.6,80.14,9.17,75c-.67-.18-1.36-.34-2-.5C6,77.67,4.84,80.93,3.93,84.29A115.77,115.77,0,0,0,70.05,220.46C37.35,198.28,35.33,171,40.71,150.22Z"/><path class="f" d="M183.73,162.53c-2.75.77-5.44,1.36-8,1.82a95.07,95.07,0,0,1-27.14.81,74.84,74.84,0,0,0-9.74,14.47c-.15.31-.31.59-.47.92s-.26.57-.39.86c-5.05,10.89-8.85,26.64-3.62,46.06.18.67.39,1.35.59,2,3.37-.59,6.74-1.27,10.11-2.16A115.75,115.75,0,0,0,229.88,102C227,141.41,204.42,156.81,183.73,162.53Z"/><path class="g" d="M47.12,23S22,38.71,8.9,70.27a69.2,69.2,0,0,1,51.51,46.58c3.19-2,13-9.77,19.57-31.1C87.93,60,103,41,122.63,32.69,122.63,32.69,97.82-2.68,47.12,23Z"/><path class="h" d="M126.68,208.55c0-13.06,3.62-30.36,18.13-46.65l.17-.25c-2.37-2.53-10.67-8.77-32-3.91-26.3,6-55.32,5.31-72.28-7.52,0,0-18.23,39.17,29.34,70.24,0,0,26.14,13.86,60,9.48A66,66,0,0,1,126.68,208.55Z"/><path class="i" d="M208.06,45.26a68.33,68.33,0,0,1-51.19,23.19,74.78,74.78,0,0,1-15.2-1.59l-.26-.06c-1,3.59-1.78,13.76,12.7,29.37,18.33,19.78,32.24,45.26,29.62,66.36,0,0,43-3.8,46.15-60.54C229.88,102,228.82,72.4,208.06,45.26Z"/></svg>