<?xml version="1.0" encoding="UTF-8"?>
<svg version="1.1" width="200" height="262" viewBox="0 0 200 262" xmlns="http://www.w3.org/2000/svg">
 <path d="m101.1 165.3 17.19-18.87v32.09h21.31v-79.17h-7.689l-31.88 36.72-31.88-36.72h-7.678v79.17h21.3v-32.09l17.2 18.87zm1.828-92.16-2.893-58.38-2.89 58.38c-6.002 1.372-10.5 6.92-10.5 13.57h26.79c0-6.647-4.496-12.2-10.5-13.57zm15.37 38.62v-12.41h-36.52v12.41l2.431 2.81v-12.7h2.441v15.49l2.431 2.81v-18.3h2.434v21.11l2.441 2.803v-23.91h2.428v26.71l2.438 2.803v-29.52h2.441v29.52l2.431-2.803v-26.71h2.431v23.91l2.438-2.803v-21.1h2.434v18.3l2.434-2.81v-15.49h2.434v12.7zm-38.96-14.94h41.39v-7.585h-41.39zm76.12 164.9h1.979v-8.154h4.396v-1.472h-6.378v9.626zm-3.538-5.913c-0.0676 0.1777-0.1709 0.3396-0.3034 0.4759-0.1244 0.1183-0.2742 0.2068-0.4379 0.2586-0.169 0.05-0.3444 0.0756-0.5207 0.0759h-1.31v-3.055h1.241c0.4138 0 0.7551 0.1241 1.028 0.3552 0.2793 0.2414 0.4138 0.6309 0.4138 1.183 0 0.2759-0.0379 0.5103-0.1103 0.7068zm-1.048-3.714h-3.517v9.63h2.007l-0.0103-3.693h1.683c0.479 0.0122 0.9547-0.082 1.393-0.2758 0.7012-0.3187 1.234-0.9203 1.466-1.655 0.1069-0.3552 0.1621-0.7068 0.1621-1.052 0-0.9068-0.2655-1.628-0.793-2.152-0.531-0.5344-1.328-0.8033-2.39-0.8033zm-7.895 3.531-0.7964 2.324h-0.069l-0.8102-2.324-1.307-3.531h-1.983l2.965 7.137h0.5l-0.2172 0.5896c-0.0897 0.2414-0.1966 0.4034-0.3207 0.4792-0.1411 0.0746-0.2991 0.1115-0.4586 0.1069-0.1512-1e-3 -0.3021-0.0127-0.4517-0.0345-0.2149-0.0314-0.4288-0.0694-0.6413-0.1138l-0.3103 1.397c0.6077 0.1858 1.24 0.2788 1.876 0.2759 0.4372 0.0154 0.8684-0.1051 1.234-0.3448 0.3276-0.2345 0.5964-0.6378 0.8171-1.207l3.165-8.285h-1.955l-1.241 3.531zm-8.226 4.286c-0.2624 0.2592-0.6172 0.4032-0.9861 0.4h-1.724v-3.052h1.603c0.198 4.2e-4 0.3952 0.0271 0.5862 0.0793 0.3707 0.1003 0.673 0.3682 0.8171 0.724 0.0866 0.2109 0.1277 0.4376 0.1207 0.6654 0 0.524-0.1379 0.9171-0.4138 1.183zm1.6-3.328c-0.3002-0.2486-0.649-0.4318-1.024-0.5378-0.4318-0.1284-0.8804-0.1912-1.331-0.1862h-1.955v-2.348h4.286v-1.414h-6.278v9.626h4.19c0.4232 7e-3 0.8439-0.0646 1.241-0.2103 0.3538-0.1298 0.6766-0.3318 0.9482-0.593 0.2668-0.2692 0.4726-0.5926 0.6034-0.9482 0.1379-0.369 0.2172-0.793 0.2172-1.259 8e-3 -0.4262-0.0743-0.8491-0.2414-1.241-0.1463-0.3434-0.3706-0.648-0.6551-0.8895zm-9.613-0.7757c-0.0658 0.1794-0.1706 0.3419-0.3069 0.4759-0.1238 0.1191-0.2738 0.2077-0.4379 0.2586-0.1679 0.0497-0.3421 0.0753-0.5172 0.0759h-1.31v-3.055h1.241c0.4103 0 0.7585 0.1241 1.034 0.3552 0.269 0.2414 0.4069 0.6309 0.4069 1.183 7e-3 0.2404-0.0306 0.48-0.1104 0.7068zm-1.048-3.714h-3.517v9.63h2.007l-0.0138-3.693h1.686c0.5516 0 1.014-0.0965 1.397-0.2758 0.7027-0.3174 1.235-0.9214 1.462-1.659 0.1074-0.3392 0.1632-0.6924 0.1655-1.048 0-0.9068-0.2655-1.628-0.7999-2.152-0.531-0.5344-1.324-0.8033-2.386-0.8033zm-9.682 5.276h3.686v-1.369h-3.686v-2.438h4.386v-1.469h-6.389v9.63h6.575v-1.472h-4.572v-2.879zm-11.01-3.779h2.938v8.133h1.965l0.0172-8.13h2.924v-1.5h-7.844zm-5.379 3.783h3.676v-1.372h-3.676v-2.438h4.379v-1.469h-6.389v9.63h6.578v-1.472h-4.565v-2.879zm-11.68 4.352h2.01l-0.01379-8.116h3.6v8.116h2.021v-9.623h-7.616zm-5.579-3.069h3.707v-1.372h-3.707zm-8.833-5.062h2.938v8.13h1.965l0.01724-8.13h2.928v-1.5h-7.847v1.497zm-1.503 4.248c-0.06568-0.18-0.155-0.3504-0.2655-0.5068-0.1174-0.157-0.2568-0.2964-0.4138-0.4138-0.1743-0.124-0.3711-0.213-0.5793-0.2621l0.01379-0.0724c0.3011-0.1425 0.5557-0.3672 0.7344-0.6482 0.2075-0.3204 0.3591-0.6736 0.4483-1.045l0.6757-2.759h-1.914l-0.6206 2.448c-0.05409 0.2411-0.1473 0.4717-0.2759 0.6826-0.1782 0.294-0.466 0.5049-0.7999 0.5862-0.1472 0.0324-0.2975 0.0486-0.4483 0.0483h-1.145v-3.776h-1.955v9.595h1.955v-4.293h1.252c0.4828 0 0.8378 0.1138 1.076 0.3448 0.2379 0.2276 0.4138 0.5585 0.531 0.9999l0.7826 2.948h1.993l-0.862-3.328c-0.05632-0.1854-0.1173-0.3694-0.1828-0.5517zm-10.52-1.897h-3.596v-1.921c0.0069-0.631 0.01034-1.272 0.01034-1.917h-2.01v9.616h2.01l-0.0069-2.131-0.0034-2.148h3.596v4.279h2.007v-9.62h-2.003v3.838zm-12.34 2.183 0.6861-2.462 0.569-2.159h0.06207l0.5448 2.086 0.6861 2.534zm0.08275-6.016-3.155 9.613h1.979l0.6585-2.197h3.39l0.6447 2.197h2.048l-3.059-9.613zm-4.621 7.93c-0.5272 0.1057-1.062 0.1669-1.6 0.1828-0.4335 0.014-0.8655-0.0562-1.272-0.2069-0.3301-0.1294-0.6185-0.3464-0.8344-0.6276-0.2241-0.3116-0.3782-0.6679-0.4517-1.045-0.09564-0.4767-0.1407-0.962-0.1345-1.448 0-1.131 0.2241-1.972 0.6723-2.528 0.4483-0.5552 1.107-0.8275 1.969-0.8275 0.6531 3e-3 1.303 0.0962 1.931 0.2759l0.2862-1.517c-0.798-0.2605-1.633-0.3909-2.472-0.3862-0.893 0-1.624 0.1586-2.207 0.4758-0.5759 0.3138-1.034 0.7206-1.372 1.207-0.3379 0.4896-0.5759 1.034-0.7068 1.634-0.1379 0.5999-0.2069 1.172-0.2069 1.734 0 0.6895 0.06895 1.331 0.2069 1.924 0.131 0.5964 0.369 1.11 0.7068 1.555 0.3509 0.4588 0.8156 0.8177 1.348 1.041 0.5621 0.2517 1.269 0.3793 2.124 0.3793 0.5094 5e-3 1.018-0.044 1.517-0.1448 0.2552-0.0414 0.5-0.0965 0.7413-0.1552 0.223-0.0578 0.4418-0.1304 0.6551-0.2172l-0.3241-1.431c-0.1896 0.0469-0.3804 0.0883-0.5724 0.1241zm68.91-62.69v-9.813h-1.803l-2.169 0.662v1.397l1.986-0.1896v7.944zm-11.41-3.948c0.4089-0.582 0.8032-1.174 1.183-1.776 0.2-0.3207 0.4034-0.6414 0.6068-0.9516l0.5621-0.8275h0.1v3.555h-2.455zm4.338 3.952v-2.503h1.376v-1.448h-1.379v-5.876h-2.079l-0.562 0.8137-0.7206 1.048c-0.2517 0.3793-0.5172 0.7723-0.793 1.172-0.2724 0.4069-0.5344 0.7964-0.793 1.169-0.2552 0.3793-0.4965 0.724-0.7171 1.045-0.2241 0.3207-0.4034 0.593-0.5586 0.8068v1.266h4.303v2.503h1.924zm-9.588-5.627c-0.03793 0.0276-0.1034 0.0621-0.1931 0.1276-0.2651 0.1728-0.5561 0.302-0.862 0.3828-0.2174 0.0557-0.4411 0.0824-0.6654 0.0793-0.2394 8e-3 -0.4779-0.0344-0.6999-0.1241-0.1748-0.0759-0.3278-0.1944-0.4448-0.3448-0.117-0.1529-0.1994-0.3294-0.2414-0.5172-0.04901-0.2114-0.07216-0.4279-0.06896-0.6447-0.02366-0.433 0.1167-0.8589 0.3931-1.193 0.2655-0.2931 0.6482-0.4414 1.148-0.4414 0.3517 0 0.6344 0.0793 0.8516 0.2345 0.2145 0.1518 0.3866 0.356 0.5 0.593 0.1103 0.2414 0.1862 0.5034 0.2241 0.7826 0.03793 0.2828 0.05862 0.5448 0.05862 0.793zm-0.5483 3.221c-0.1769 0.272-0.4082 0.5045-0.6792 0.6826-0.3128 0.1944-0.6767 0.2905-1.045 0.2759-0.2172 0-0.4793-0.0103-0.7826-0.0448-0.3277-0.0382-0.6494-0.1157-0.9585-0.231l-0.3552 1.455c0.2069 0.0862 0.5069 0.1724 0.8861 0.2483 0.3793 0.0793 0.8344 0.1207 1.341 0.1207 0.7447 0 1.379-0.1379 1.907-0.4138 0.5276-0.2828 0.9585-0.669 1.3-1.162 0.3345-0.4896 0.5792-1.069 0.7309-1.734 0.2904-1.304 0.3045-2.655 0.04138-3.965-0.1137-0.5154-0.3243-1.005-0.6206-1.441-0.2874-0.41-0.6725-0.7418-1.121-0.9654-0.5371-0.25-1.125-0.3716-1.717-0.3552-0.5069 0-0.9688 0.0724-1.4 0.2207-0.8185 0.2644-1.478 0.8781-1.8 1.676-0.1798 0.4492-0.2678 0.9299-0.2586 1.414 0 0.5345 0.0793 0.993 0.2276 1.379 0.1326 0.3593 0.3421 0.6852 0.6137 0.9551 0.2627 0.2516 0.5768 0.4433 0.9206 0.5621 0.3448 0.1207 0.724 0.1828 1.131 0.1828 0.7206 0 1.424-0.2034 2.117-0.6l0.08275 0.0517c-0.03558 0.2777-0.09322 0.552-0.1724 0.8206-0.086 0.3074-0.2173 0.6002-0.3896 0.8689zm-6.754 2.403v-9.813h-1.8l-2.172 0.662v1.397l1.993-0.1896v7.944z" fill="#03848b" stroke-width="3.448"/>
 <path d="m198.2 217.2-9.702 9.837v-9.757h-5.014v19.94h1.759l9.671-9.809v9.778h5.069v-19.99zm-34.14 10.06c0-7.164 9.62-7.164 9.62 0 0 7.23-9.62 7.23-9.62 0zm-5.038 0c0 13.8 19.68 13.8 19.68 0 0-13.76-19.68-13.76-19.68 0zm-10.52 0.269h-3.5v-5.69c1.114 0 2.352-0.0345 3.5 0 2.862 0.0172 2.683 5.69 0 5.69zm-8.402-10.25v19.91h4.903v-5.096h3.534c9.182 0 9.182-14.78 0-14.81zm-13.67 19.91h4.845v-15.34h4.69v-4.562h-14.24v4.559h4.71zm-16.76 0.2069c4.076 0 8.378-2.224 9.102-7.847h-4.828c-0.5206 2.128-2.19 3.214-4.276 3.214-2.91-0.0345-4.769-2.593-4.769-5.527 0-3.296 1.897-5.534 4.769-5.534 2.048 0 3.507 0.9033 4.19 2.928h4.821c-0.7344-5.321-5.048-7.561-9.009-7.561-4.879 0-9.806 3.414-9.844 10.17 0.0379 6.768 4.965 10.19 9.844 10.16zm-27.57-10.13c0-7.164 9.62-7.164 9.62 0 0 7.23-9.62 7.23-9.62 0zm-5.034 0c0 13.8 19.67 13.8 19.67 0 0-13.76-19.66-13.76-19.66 0zm-13.48 0.269v-5.69c1.128 0 2.355-0.0345 3.507 0 2.855 0.0172 2.69 5.69 0 5.69h-3.503zm3.531-10.25h-8.43v19.91h4.903v-5.096h3.528c9.178 0 9.178-14.78 0-14.81zm-17.25 19.91v-15.34h4.679v-4.562h-14.24v4.559h4.71v15.35zm-20.33-8.009h6.516v-4.528h-6.516v-2.81h7.099v-4.559h-11.97v19.91h12.21v-4.528h-7.33v-3.49zm-20.24-3.303-7.499-8.647h-1.814v19.97h5.014v-8.878l4.052 4.448h0.5517l4.079-4.448v8.875h5.014v-19.96h-1.745l-7.654 8.644zm187.2-12.29h-7.137l3.576 3.696zm-114.8-16.23v-9.847h-36.64l-33.94-108.4 88.83-67 88.84 67-33.93 108.4h-36.62v9.847h43.51l38.19-122-99.99-75.4-99.98 75.4 38.2 122z" fill="#085e7f" stroke-width="3.448"/>
</svg>
