<svg xmlns="http://www.w3.org/2000/svg" viewBox="0 0 237.3 17.14"><defs><style>.a{fill:#0069aa;}</style></defs><path class="a" d="M5.16,9.81a.75.75,0,0,0,.21-.12,9.79,9.79,0,0,1-.15-1L4.69,9A9.42,9.42,0,0,0,0,16.27a9.4,9.4,0,0,0,8.66-.4A9.28,9.28,0,0,0,12.76,11a3.88,3.88,0,0,0-.86-.44A8.3,8.3,0,0,1,8.17,15a8.36,8.36,0,0,1-7.11.62,8.53,8.53,0,0,1,4.1-5.84m-2.64,5A7.12,7.12,0,0,1,5.71,10.9a5.92,5.92,0,0,1-.28-1L5.28,10A8.28,8.28,0,0,0,1.33,15.5,8.15,8.15,0,0,0,8,14.85a8.34,8.34,0,0,0,3.64-4.32,6.68,6.68,0,0,0-.84-.25h-.09l0,.09A7.4,7.4,0,0,1,7.58,14a7.33,7.33,0,0,1-5.06.8M6.62,7.7A8.25,8.25,0,0,0,8.54,13c.22-.22.44-.4.62-.62l.06-.09-.06-.06A7.29,7.29,0,0,1,7.58,7.7a7.21,7.21,0,0,1,1.8-4.78,7.17,7.17,0,0,1,1.83,4.72c.31.06.62.12,1,.22V7.7A8.14,8.14,0,0,0,9.38,1.55,8.22,8.22,0,0,0,6.62,7.7M8,9a4.34,4.34,0,0,0,.22.84l0,.09.09,0a7.46,7.46,0,0,1,4.72.9,7.17,7.17,0,0,1,3.23,4,7.16,7.16,0,0,1-5-.8,7.55,7.55,0,0,1-.68.71l.16.09a8.11,8.11,0,0,0,6.7.69A8.23,8.23,0,0,0,13.51,10,8,8,0,0,0,8,9M12.39,8a5.3,5.3,0,0,1,1,.37V7.7a9.4,9.4,0,0,0-4-7.7,9.49,9.49,0,0,0-4,7.7,9.17,9.17,0,0,0,2.18,6,6.1,6.1,0,0,0,.77-.52,8.48,8.48,0,0,1,1-11.93,8.33,8.33,0,0,1,3,6.46Zm6.4,8.32A9.42,9.42,0,0,0,7.86,7.83c0,.34,0,.65.06,1a8.36,8.36,0,0,1,5.71,1,8.53,8.53,0,0,1,4.1,5.84A8.36,8.36,0,0,1,10.62,15a2.18,2.18,0,0,1-.22-.12c-.24.21-.52.43-.77.62.15.12.34.22.49.34a9.42,9.42,0,0,0,8.67.4m12.39-3h2.21V4.75H31.18V7.89H25.4V4.75H23.23v8.48H25.4V9.32h5.78Zm11.74,0h2.17V4.75H42.67l-5.53,6v-6h-2.2v8.48h2.45l5.53-6.06Zm18.42,0-4.51-4.5,4-4h-2.7L54.75,8.07V4.75H52.58V8.07L49.22,4.75h-2.7l4,4L46,13.23h2.7l3.13-3.14.72.69v2.45h2.17V10.78l.72-.69,3.16,3.14Zm8.88,0h2.17V4.75H70.22V7.89H64.44V4.75h-2.2v8.48h2.2V9.32h5.78Zm3.76,0h9.5V11.8H76.15V9.32h6.68V7.89H76.15V6.15h7.33V4.75H74Zm21,0-4.5-4.5,4-4h-2.7l-4.5,4.5V4.75H85v8.48h2.21V12l1.86-1.87,3.14,3.14Zm7.48-3.85h-3l1.49-3Zm1.93,3.85h2.33l-4.26-8.48h-3l-4.25,8.48h2.33l1.21-2.45h4.38Zm13.26,0h2.21V4.75h-2.89l-3.23,6.43-3.2-6.43h-2.92v8.48h2.2V7.45l2.89,5.78h2l2.89-5.78Zm6.86,0h6.43V11.8h-6.58c-.37,0-.75,0-.75-.43V6.61c0-.46.38-.46.75-.46h6.58V4.75h-6.43c-1.55,0-3.1,0-3.1,1.74v5c0,1.74,1.55,1.74,3.1,1.74m17.89,0-4.5-4.5,4-4h-2.7l-4.5,4.5V4.75h-2.17v8.48h2.17V12l1.86-1.87,3.17,3.14Zm8.88,0h2.21V4.75h-2.21V7.89h-5.77V4.75h-2.21v8.48h2.21V9.32h5.77Zm3.76,0h9.51V11.8h-7.33V9.32h6.7V7.89h-6.7V6.15h7.33V4.75H155Zm20.59-2.83c0,.44-.37.44-.77.44H173V7.11h1.8c.4,0,.77,0,.77.47Zm-4.75.44H169c-.4,0-.78,0-.78-.44V7.58c0-.47.38-.47.78-.47h1.8Zm6.93-.31V7.45c0-1.74-1.52-1.74-3.08-1.74H173v-1h-2.18v1h-1.68c-1.55,0-3.07,0-3.07,1.74v3.08c0,1.74,1.52,1.74,3.07,1.74h1.68v1H173v-1h1.67c1.56,0,3.08,0,3.08-1.74m7.61-4.38h4.38V4.75H178.82v1.4h4.38v7.08h2.18Zm5.43,7.08h9.5V11.8H193V9.32h6.71V7.89H193V6.15h7.33V4.75h-9.5Zm21.62,0L208.2,9l4.23-4.22h-2.71l-2.88,2.89L204,4.75h-2.7L205.5,9l-4.25,4.26H204l2.89-2.89,2.88,2.89Zm8.91,0h2.17V4.75h-2.45l-5.53,6v-6h-2.17v8.48h2.45l5.53-6.06Zm16,0V4.75h-2.89l-3.23,6.43L228,4.75h-2.88v8.48h2.2V7.45l2.89,5.78h2.05l2.89-5.78v5.78Z"/></svg>